<svg width="16" height="16" viewBox="0 0 16 16" fill="none" xmlns="http://www.w3.org/2000/svg">
<path d="M13.2734 10.34H10.2534C10.0766 10.34 9.90699 10.4102 9.78197 10.5353C9.65695 10.6603 9.58671 10.8299 9.58671 11.0067C9.58671 11.1835 9.65695 11.353 9.78197 11.4781C9.90699 11.6031 10.0766 11.6733 10.2534 11.6733H11.8534C11.118 12.4418 10.1696 12.9729 9.13015 13.1983C8.09066 13.4236 7.00751 13.3331 6.01989 12.9382C5.03227 12.5433 4.18529 11.8621 3.58777 10.9821C2.99025 10.1022 2.66949 9.06364 2.66671 7.99999C2.66671 7.82318 2.59647 7.65361 2.47145 7.52859C2.34642 7.40357 2.17685 7.33333 2.00004 7.33333C1.82323 7.33333 1.65366 7.40357 1.52864 7.52859C1.40361 7.65361 1.33337 7.82318 1.33337 7.99999C1.3369 9.30186 1.72152 10.5742 2.43978 11.66C3.15803 12.7458 4.17848 13.5976 5.3752 14.1101C6.57192 14.6227 7.89253 14.7737 9.17405 14.5444C10.4556 14.3152 11.6419 13.7157 12.5867 12.82V14C12.5867 14.1768 12.6569 14.3464 12.782 14.4714C12.907 14.5964 13.0766 14.6667 13.2534 14.6667C13.4302 14.6667 13.5998 14.5964 13.7248 14.4714C13.8498 14.3464 13.92 14.1768 13.92 14V11C13.9184 10.8278 13.8501 10.6628 13.7296 10.5398C13.609 10.4168 13.4455 10.3452 13.2734 10.34ZM8.00004 1.33333C6.29096 1.3382 4.64903 1.99927 3.41337 3.17999V1.99999C3.41337 1.82318 3.34314 1.65361 3.21811 1.52859C3.09309 1.40357 2.92352 1.33333 2.74671 1.33333C2.5699 1.33333 2.40033 1.40357 2.2753 1.52859C2.15028 1.65361 2.08004 1.82318 2.08004 1.99999V4.99999C2.08004 5.17681 2.15028 5.34637 2.2753 5.4714C2.40033 5.59642 2.5699 5.66666 2.74671 5.66666H5.74671C5.92352 5.66666 6.09309 5.59642 6.21811 5.4714C6.34314 5.34637 6.41337 5.17681 6.41337 4.99999C6.41337 4.82318 6.34314 4.65361 6.21811 4.52859C6.09309 4.40357 5.92352 4.33333 5.74671 4.33333H4.14671C4.88168 3.56524 5.82943 3.03433 6.86831 2.80873C7.90718 2.58314 8.98977 2.67316 9.97711 3.06724C10.9645 3.46131 11.8115 4.14147 12.4095 5.0204C13.0076 5.89932 13.3293 6.93692 13.3334 7.99999C13.3334 8.17681 13.4036 8.34637 13.5286 8.4714C13.6537 8.59642 13.8232 8.66666 14 8.66666C14.1769 8.66666 14.3464 8.59642 14.4714 8.4714C14.5965 8.34637 14.6667 8.17681 14.6667 7.99999C14.6667 7.12452 14.4943 6.25761 14.1592 5.44877C13.8242 4.63993 13.3331 3.90501 12.7141 3.28595C12.095 2.66689 11.3601 2.17583 10.5513 1.8408C9.74243 1.50577 8.87552 1.33333 8.00004 1.33333Z" fill="#F9A500"/>
</svg>
